<?xml version="1.0" standalone="no"?>
<!DOCTYPE svg PUBLIC "-//W3C//DTD SVG 20010904//EN"
 "http://www.w3.org/TR/2001/REC-SVG-20010904/DTD/svg10.dtd">
<svg version="1.0" xmlns="http://www.w3.org/2000/svg"
 width="512.000000pt" height="512.000000pt" viewBox="0 0 512.000000 512.000000"
 preserveAspectRatio="xMidYMid meet">

<g transform="translate(0.000000,512.000000) scale(0.100000,-0.100000)"
fill="#000000" stroke="none">
<path d="M3920 4884 c-22 -9 -293 -273 -756 -735 l-721 -721 -109 31 c-60 17
-152 38 -204 46 -124 20 -373 19 -507 -1 -516 -76 -982 -411 -1217 -874 -278
-548 -241 -1168 101 -1685 91 -137 301 -347 438 -438 113 -74 292 -163 405
-201 507 -168 1078 -79 1505 236 119 87 303 280 384 402 189 285 282 588 282
928 0 196 -19 325 -73 500 l-21 68 41 44 c53 58 59 70 131 286 l61 185 168 55
c214 70 244 82 275 116 18 20 47 90 93 229 l67 201 205 69 206 68 93 89 c53
53 101 109 114 135 l22 45 -37 336 c-42 382 -49 423 -76 462 -36 51 -70 59
-447 100 -196 22 -364 40 -372 40 -9 -1 -32 -8 -51 -16z m371 -339 c123 -14
224 -26 225 -28 1 -1 14 -107 29 -236 l26 -234 -35 -36 c-32 -32 -62 -46 -258
-111 -182 -62 -227 -81 -254 -107 -28 -28 -43 -63 -94 -225 -34 -106 -67 -198
-73 -204 -7 -7 -91 -38 -187 -69 -210 -69 -242 -84 -268 -127 -11 -18 -50
-125 -87 -238 l-68 -205 -67 -70 c-113 -118 -120 -150 -66 -292 140 -368 119
-755 -61 -1104 -160 -311 -440 -548 -770 -653 -154 -48 -237 -61 -408 -61
-213 0 -374 35 -564 121 -251 115 -503 360 -631 614 -41 82 -97 247 -117 348
-24 122 -24 376 0 491 61 284 178 503 372 696 153 153 314 252 518 320 143 48
257 66 422 66 173 0 284 -19 435 -73 136 -48 195 -56 242 -34 18 9 361 344
763 746 401 401 735 730 742 730 7 0 112 -11 234 -25z"/>
<path d="M1650 2364 c-191 -50 -352 -206 -412 -399 -33 -104 -30 -243 6 -350
71 -207 231 -347 445 -391 304 -61 604 133 680 441 17 68 15 207 -4 280 -52
202 -217 367 -421 420 -73 19 -221 18 -294 -1z m255 -323 c177 -81 212 -318
64 -444 -161 -138 -411 -40 -436 172 -12 106 53 221 151 267 64 30 162 32 221
5z"/>
</g>
</svg>
